<svg width="760" height="1249" viewBox="0 0 760 1249" fill="none" xmlns="http://www.w3.org/2000/svg">
<rect x="592" y="7" width="20" height="20" fill="#F4F4F4"/>
<circle cx="440" cy="42" r="12" fill="#D9F4F2"/>
<rect x="729.755" y="28.6264" width="37.8048" height="37.8048" transform="rotate(45 729.755 28.6264)" fill="black"/>
<circle cx="360" cy="326" r="4.5" fill="white" stroke="#707070"/>
<rect x="36.9396" y="312.308" width="26.0492" height="26.0492" transform="rotate(45 36.9396 312.308)" fill="#F4BEBD"/>
<circle cx="3.5" cy="212.5" r="3" fill="white" stroke="#707070"/>
<rect opacity="0.0446135" x="753.305" y="1066.75" width="27.3661" height="25.9938" transform="rotate(45 753.305 1066.75)" fill="black"/>
<path d="M58.5 1135.5C58.5 1137.83 57.0472 1139.5 55.5 1139.5C53.9528 1139.5 52.5 1137.83 52.5 1135.5C52.5 1133.17 53.9528 1131.5 55.5 1131.5C57.0472 1131.5 58.5 1133.17 58.5 1135.5Z" stroke="#707070"/>
<rect x="120" width="19" height="20" fill="#EFE1BC"/>
<rect opacity="0.302394" x="117.868" y="1209.68" width="27.3661" height="27.3661" transform="rotate(45 117.868 1209.68)" fill="white"/>
<rect opacity="0.642623" x="731" y="1189" width="20" height="21" fill="#F4F4F4"/>
<rect opacity="0.795533" x="721" y="941" width="10" height="10" fill="#F4F4F4"/>
</svg>
